<?xml version="1.0" encoding="UTF-8" standalone="no"?>
<!-- Created with Inkscape (http://www.inkscape.org/) -->

<svg
   xmlns:dc="http://purl.org/dc/elements/1.1/"
   xmlns:cc="http://creativecommons.org/ns#"
   xmlns:rdf="http://www.w3.org/1999/02/22-rdf-syntax-ns#"
   xmlns:svg="http://www.w3.org/2000/svg"
   xmlns="http://www.w3.org/2000/svg"
   xmlns:sodipodi="http://sodipodi.sourceforge.net/DTD/sodipodi-0.dtd"
   xmlns:inkscape="http://www.inkscape.org/namespaces/inkscape"
   width="500mm"
   height="514.5929mm"
   viewBox="0 0 500.00001 514.59291"
   version="1.1"
   id="svg94"
   inkscape:version="0.92.3 (2405546, 2018-03-11)"
   sodipodi:docname="martin-vet-square1.ai.svg"
   inkscape:export-filename="/home/mcdragon/Dropbox/Pet Doc Martin Team Folder/Logo/design/martin-vet-square-340x350.png"
   inkscape:export-xdpi="86.360001"
   inkscape:export-ydpi="86.360001">
  <defs
     id="defs88">
    <clipPath
       clipPathUnits="userSpaceOnUse"
       id="clipPath4894">
      <path
         d="M 0,1200 H 1200 V 0 H 0 Z"
         id="path4892"
         inkscape:connector-curvature="0" />
    </clipPath>
  </defs>
  <sodipodi:namedview
     id="base"
     pagecolor="#ffffff"
     bordercolor="#666666"
     borderopacity="1.0"
     inkscape:pageopacity="0.0"
     inkscape:pageshadow="2"
     inkscape:zoom="0.24748737"
     inkscape:cx="115.99773"
     inkscape:cy="909.89041"
     inkscape:document-units="mm"
     inkscape:current-layer="text4754"
     showgrid="false"
     inkscape:window-width="1853"
     inkscape:window-height="1025"
     inkscape:window-x="67"
     inkscape:window-y="27"
     inkscape:window-maximized="1"
     fit-margin-top="0"
     fit-margin-left="0"
     fit-margin-right="0"
     fit-margin-bottom="0"
     inkscape:pagecheckerboard="true"
     inkscape:showpageshadow="true"
     showborder="true"
     borderlayer="false" />
  <metadata
     id="metadata91">
    <rdf:RDF>
      <cc:Work
         rdf:about="">
        <dc:format>image/svg+xml</dc:format>
        <dc:type
           rdf:resource="http://purl.org/dc/dcmitype/StillImage" />
        <dc:title></dc:title>
      </cc:Work>
    </rdf:RDF>
  </metadata>
  <g
     inkscape:label="Layer 1"
     inkscape:groupmode="layer"
     id="layer1"
     transform="translate(-104.48401,212.57854)">
    <g
       transform="matrix(10.911441,0,0,-10.911441,372.36606,-110.88105)"
       id="g3870"
       style="fill:#d38412;fill-opacity:1"
       inkscape:export-filename="/home/mcdragon/Dropbox/Pet Doc Martin Team Folder/Logo/design/martin-vet-square.png"
       inkscape:export-xdpi="93.817513"
       inkscape:export-ydpi="93.817513">
      <path
         inkscape:connector-curvature="0"
         id="path3872"
         style="fill:#d38412;fill-opacity:1;fill-rule:nonzero;stroke:none"
         d="m 0,0 c 0.181,-0.568 0.265,-1.106 0.268,-1.615 0.007,-0.742 -0.158,-1.422 -0.449,-2.051 -1.669,-3.625 -7.497,-5.516 -8.942,-6.698 -0.26,-0.211 -0.52,-0.425 -0.774,-0.644 -0.309,2.537 0.644,5.839 1.187,7.039 -0.176,0.186 -0.367,0.364 -0.52,0.571 -0.53,0.7 -0.563,1.666 -0.431,2.537 0.136,0.869 0.408,1.725 0.408,2.609 -0.423,-1.402 -1.503,-3.024 -2.397,-4.209 -1.59,-2.097 -2.589,2.583 -3.032,3.467 -0.706,1.396 -1.279,2.571 -0.082,4.122 0.579,0.754 1.458,1.203 2.263,1.702 1.228,0.764 2.438,0.589 3.651,1.376 0.01,0.005 0.02,0.013 0.03,0.018 1.898,1.223 4.3,1.437 6.387,0.57 0.01,-0.005 0.02,-0.01 0.031,-0.012 C -1.067,8.224 0.092,8.608 1.434,8.074 2.316,7.725 3.261,7.439 3.964,6.802 5.416,5.482 5.06,4.227 4.614,2.729 4.481,2.285 4.379,1.006 4.109,-0.051 3.867,-0.996 3.493,-1.76 2.846,-1.592 2.729,-1.562 2.604,-1.501 2.469,-1.404 2.397,-1.353 2.321,-1.292 2.245,-1.22 1.333,-0.382 0.242,0.736 -0.481,1.842 -0.507,1.88 -0.53,1.918 -0.555,1.957 -0.352,1.304 -0.107,0.341 0,0" />
    </g>
    <g
       transform="matrix(10.911441,0,0,-10.911441,574.71116,160.70958)"
       id="g3874"
       inkscape:export-filename="/home/mcdragon/Dropbox/Pet Doc Martin Team Folder/Logo/design/martin-vet-square.png"
       inkscape:export-xdpi="93.817513"
       inkscape:export-ydpi="93.817513">
      <path
         inkscape:connector-curvature="0"
         id="path3876"
         style="fill:#d38412;fill-opacity:1;fill-rule:nonzero;stroke:none"
         d="M 0,0 C -0.008,-0.005 -0.015,-0.013 -0.023,-0.018 -1.014,-0.843 -2.278,-1.271 -3.569,-1.271 H -14.04 c -0.283,0.002 -1.46,4.287 -0.494,7.905 0.647,2.423 2.094,4.601 3.78,6.438 1.009,-0.945 1.748,-2.176 2.405,-3.381 0.732,-1.345 1.356,-2.744 1.934,-4.158 0.476,-1.166 0.726,-2.542 1.389,-3.617 0.147,-0.24 0.356,-0.451 0.621,-0.548 0.288,-0.11 0.617,-0.069 0.902,0.046 0.787,0.321 1.378,1.072 1.865,1.735 0.886,1.207 1.556,2.583 2.079,3.979 0.466,1.249 0.843,2.571 0.914,3.908 C 1.396,11.752 5.184,4.96 0,0" />
    </g>
    <g
       transform="matrix(10.911441,0,0,-10.911441,421.51452,174.58136)"
       id="g3878"
       style="fill:#3a4d5c;fill-opacity:1"
       inkscape:export-filename="/home/mcdragon/Dropbox/Pet Doc Martin Team Folder/Logo/design/martin-vet-square.png"
       inkscape:export-xdpi="93.817513"
       inkscape:export-ydpi="93.817513">
      <path
         inkscape:connector-curvature="0"
         id="path3880"
         style="fill:#3a4d5c;fill-opacity:1;fill-rule:nonzero;stroke:none"
         d="m 0,0 c -0.769,0.01 -2.861,0.008 -3.63,0.005 v 6.023 c 0,1.452 -1.18,2.629 -2.632,2.629 -1.455,0 -2.632,-1.177 -2.632,-2.629 V 0.005 C -9.498,0.008 -11.07,0.008 -11.673,0 c 0.204,0.003 -0.584,7.46 -2.543,14.211 -0.086,0.298 -0.148,0.614 -0.186,0.942 0.255,0.219 0.515,0.433 0.775,0.645 1.444,1.182 7.273,3.072 8.942,6.698 0.252,-0.642 0.576,-1.251 0.994,-1.802 C -1.806,18.2 0.904,16.539 3.179,14.445 3.215,14.412 3.251,14.379 3.286,14.343 1.6,12.506 0.153,10.328 -0.494,7.905 -1.46,4.288 -0.283,0.003 0,0" />
    </g>
    <g
       transform="matrix(10.911441,0,0,-10.911441,294.14193,174.58136)"
       id="g3882"
       style="fill:#6786a1;fill-opacity:1"
       inkscape:export-filename="/home/mcdragon/Dropbox/Pet Doc Martin Team Folder/Logo/design/martin-vet-square.png"
       inkscape:export-xdpi="93.817513"
       inkscape:export-ydpi="93.817513">
      <path
         inkscape:connector-curvature="0"
         id="path3884"
         style="fill:#6786a1;fill-opacity:1;fill-rule:nonzero;stroke:none"
         d="m 0,0 h -10.825 c -1.289,0 -2.553,0.428 -3.544,1.253 -0.007,0.005 -0.015,0.013 -0.023,0.018 -1.709,1.44 -2.692,3.6 -2.929,5.799 -0.237,2.226 0.242,4.486 1.098,6.555 0.83,2.012 3.029,6.397 5.052,4.96 3.497,-2.481 -8.548,-10.917 -0.342,-14.758 0.176,-0.082 2.031,-0.925 2.059,-0.818 0.071,0.283 0.145,0.56 0.219,0.841 1.067,3.999 2.598,7.734 5.704,10.595 0.262,0.242 0.53,0.477 0.802,0.708 0.039,-0.328 0.1,-0.644 0.186,-0.942 C -0.583,7.46 0.204,0.003 0,0" />
    </g>
    <g
       transform="matrix(10.911441,0,0,-10.911441,457.37365,18.075502)"
       id="g3886"
       style="fill:#6786a1;fill-opacity:1"
       inkscape:export-filename="/home/mcdragon/Dropbox/Pet Doc Martin Team Folder/Logo/design/martin-vet-square.png"
       inkscape:export-xdpi="93.817513"
       inkscape:export-ydpi="93.817513">
      <path
         inkscape:connector-curvature="0"
         id="path3888"
         style="fill:#6786a1;fill-opacity:1;fill-rule:nonzero;stroke:none"
         d="m 0,0 c -0.036,0.036 -0.071,0.069 -0.107,0.102 -2.275,2.094 -4.986,3.755 -6.871,6.249 -0.418,0.551 -0.741,1.159 -0.994,1.801 0.291,0.63 0.456,1.31 0.449,2.051 -0.003,0.51 -0.087,1.047 -0.268,1.615 -0.107,0.342 -0.351,1.305 -0.555,1.957 0.025,-0.038 0.048,-0.076 0.074,-0.115 0.723,-1.105 1.814,-2.224 2.726,-3.062 0.076,-0.071 0.153,-0.132 0.224,-0.183 0.143,-0.143 0.29,-0.283 0.438,-0.418 2.247,-2.061 5.5,-2.132 6.858,4.418 C 2.334,11.885 4.733,5.159 0,0" />
    </g>
    <g
       aria-label="martin.vet"
       style="font-style:normal;font-weight:normal;font-size:82.58756256px;font-family:sans-serif;letter-spacing:-6.03874731px;word-spacing:-0.02910238px;opacity:1;fill:#000000;fill-opacity:1;stroke:none;stroke-width:2.06468916px;stroke-linecap:butt;stroke-linejoin:miter;stroke-opacity:1"
       id="text4754">
      <path
         d="m 168.46185,210.44127 v 89.10649 c 0,1.54163 0.92498,2.46661 2.46661,2.46661 h 1.23331 c 1.54164,0 2.46662,-0.92498 2.46662,-2.46661 v -102.9812 c 0,-1.54163 -0.92498,-2.46661 -2.46662,-2.46661 h -1.84996 c -1.38747,0 -2.46662,0.77081 -2.92911,2.00412 l -28.21191,75.5401 -27.74943,-75.5401 c -0.46249,-1.23331 -1.54163,-2.00412 -2.9291,-2.00412 h -1.54164 c -1.54163,0 -2.46661,0.92498 -2.46661,2.46661 v 102.9812 c 0,1.54163 0.92498,2.46661 2.46661,2.46661 h 0.92498 c 1.54164,0 2.46662,-0.92498 2.46662,-2.46661 v -89.10649 l 26.51612,70.76104 c 0.46249,1.2333 1.38747,2.00412 2.62078,2.00412 1.07914,0 2.00412,-0.77082 2.46661,-2.00412 z"
         style="font-style:normal;font-variant:normal;font-weight:300;font-stretch:normal;font-size:154.16346741px;font-family:'Rift Soft';-inkscape-font-specification:'Rift Soft, Light';font-variant-ligatures:normal;font-variant-caps:normal;font-variant-numeric:normal;font-feature-settings:normal;text-align:start;letter-spacing:-6.03874731px;word-spacing:0px;writing-mode:lr-tb;text-anchor:start;fill:#3a4d5c;fill-opacity:1;stroke-width:2.06468916px"
         id="path3733" />
      <path
         d="M 239.92156,299.23943 215.71789,196.25824 c -0.30832,-1.54164 -1.2333,-2.15829 -2.62078,-2.15829 h -2.15828 c -1.38747,0 -2.31246,0.61665 -2.62078,2.15829 l -23.89534,102.98119 c -0.30833,1.6958 0.46249,2.77494 2.15829,2.77494 h 1.23331 c 1.38747,0 2.31245,-0.61665 2.62078,-2.15828 l 6.01237,-26.51612 h 31.14102 l 6.01238,26.51612 c 0.30832,1.54163 1.2333,2.15828 2.62078,2.15828 h 1.54163 c 1.6958,0 2.46662,-1.07914 2.15829,-2.77494 z m -42.08663,-31.75767 14.18304,-62.12788 14.18304,62.12788 z"
         style="font-style:normal;font-variant:normal;font-weight:300;font-stretch:normal;font-size:154.16346741px;font-family:'Rift Soft';-inkscape-font-specification:'Rift Soft, Light';font-variant-ligatures:normal;font-variant-caps:normal;font-variant-numeric:normal;font-feature-settings:normal;text-align:start;letter-spacing:-6.03874731px;word-spacing:0px;writing-mode:lr-tb;text-anchor:start;fill:#3a4d5c;fill-opacity:1;stroke-width:2.06468916px"
         id="path3735" />
      <path
         d="m 301.07159,299.08527 -18.03712,-45.32406 c 10.48311,-2.46662 15.41634,-10.02063 15.41634,-21.89121 v -14.95386 c 0,-14.79969 -7.70817,-22.81619 -24.0495,-22.81619 h -22.3537 c -1.54164,0 -2.46662,0.92498 -2.46662,2.46661 v 102.9812 c 0,1.54163 0.92498,2.46661 2.46662,2.46661 h 1.23331 c 1.54163,0 2.46661,-0.92498 2.46661,-2.46661 v -44.86157 h 18.65378 2.15829 l 18.03713,45.32406 c 0.46249,1.38747 1.38747,2.00412 2.77494,2.00412 h 1.6958 c 1.84996,0 2.62078,-1.2333 2.00412,-2.9291 z m -27.28693,-50.25729 h -18.03713 v -48.86982 h 18.03713 c 13.56638,0 18.49961,5.85821 18.49961,19.73292 v 9.40397 c 0,13.87472 -4.93323,19.73293 -18.49961,19.73293 z"
         style="font-style:normal;font-variant:normal;font-weight:300;font-stretch:normal;font-size:154.16346741px;font-family:'Rift Soft';-inkscape-font-specification:'Rift Soft, Light';font-variant-ligatures:normal;font-variant-caps:normal;font-variant-numeric:normal;font-feature-settings:normal;text-align:start;letter-spacing:-6.03874731px;word-spacing:0px;writing-mode:lr-tb;text-anchor:start;fill:#3a4d5c;fill-opacity:1;stroke-width:2.06468916px"
         id="path3737" />
      <path
         d="m 349.19239,194.09995 h -42.85744 c -1.54164,0 -2.46662,0.92498 -2.46662,2.46661 v 0.92498 c 0,1.54164 0.92498,2.46662 2.46662,2.46662 h 18.34545 v 99.5896 c 0,1.54163 0.92498,2.46661 2.46662,2.46661 h 1.2333 c 1.54164,0 2.46662,-0.92498 2.46662,-2.46661 v -99.5896 h 18.34545 c 1.54164,0 2.46662,-0.92498 2.46662,-2.46662 v -0.92498 c 0,-1.54163 -0.92498,-2.46661 -2.46662,-2.46661 z"
         style="font-style:normal;font-variant:normal;font-weight:300;font-stretch:normal;font-size:154.16346741px;font-family:'Rift Soft';-inkscape-font-specification:'Rift Soft, Light';font-variant-ligatures:normal;font-variant-caps:normal;font-variant-numeric:normal;font-feature-settings:normal;text-align:start;letter-spacing:-6.03874731px;word-spacing:0px;writing-mode:lr-tb;text-anchor:start;fill:#3a4d5c;fill-opacity:1;stroke-width:2.06468916px"
         id="path3739" />
      <path
         d="m 365.63019,299.54776 v -102.9812 c 0,-1.54163 -0.92498,-2.46661 -2.46661,-2.46661 h -1.23331 c -1.54164,0 -2.46662,0.92498 -2.46662,2.46661 v 102.9812 c 0,1.54163 0.92498,2.46661 2.46662,2.46661 h 1.23331 c 1.54163,0 2.46661,-0.92498 2.46661,-2.46661 z"
         style="font-style:normal;font-variant:normal;font-weight:300;font-stretch:normal;font-size:154.16346741px;font-family:'Rift Soft';-inkscape-font-specification:'Rift Soft, Light';font-variant-ligatures:normal;font-variant-caps:normal;font-variant-numeric:normal;font-feature-settings:normal;text-align:start;letter-spacing:-6.03874731px;word-spacing:0px;writing-mode:lr-tb;text-anchor:start;fill:#3a4d5c;fill-opacity:1;stroke-width:2.06468916px"
         id="path3741" />
      <path
         d="M 387.88044,299.54776 V 209.0538 l 37.61588,91.11061 c 0.46249,1.23331 1.38747,1.84996 2.77494,1.84996 h 1.6958 c 1.54164,0 2.46662,-0.92498 2.46662,-2.46661 v -102.9812 c 0,-1.54163 -0.92498,-2.46661 -2.46662,-2.46661 h -1.2333 c -1.54164,0 -2.46662,0.92498 -2.46662,2.46661 v 90.49396 l -37.30756,-91.11061 c -0.46249,-1.23331 -1.38747,-1.84996 -2.77494,-1.84996 h -2.00413 c -1.54163,0 -2.46661,0.92498 -2.46661,2.46661 v 102.9812 c 0,1.54163 0.92498,2.46661 2.46661,2.46661 h 1.23331 c 1.54164,0 2.46662,-0.92498 2.46662,-2.46661 z"
         style="font-style:normal;font-variant:normal;font-weight:300;font-stretch:normal;font-size:154.16346741px;font-family:'Rift Soft';-inkscape-font-specification:'Rift Soft, Light';font-variant-ligatures:normal;font-variant-caps:normal;font-variant-numeric:normal;font-feature-settings:normal;text-align:start;letter-spacing:-6.03874731px;word-spacing:0px;writing-mode:lr-tb;text-anchor:start;fill:#3a4d5c;fill-opacity:1;stroke-width:2.06468916px"
         id="path3743" />
      <path
         d="m 449.4809,292.76457 h -2.15828 c -1.54164,0 -2.46662,0.92498 -2.46662,2.46661 v 4.31658 c 0,1.54163 0.92498,2.46661 2.46662,2.46661 h 2.15828 c 1.54164,0 2.46662,-0.92498 2.46662,-2.46661 v -4.31658 c 0,-1.54163 -0.92498,-2.46661 -2.46662,-2.46661 z"
         style="letter-spacing:-6.03874731px;word-spacing:0px;fill:#d38412;fill-opacity:1;stroke-width:2.06468916px"
         id="path3745" />
      <path
         d="m 501.67018,194.09995 h -1.23331 c -1.38747,0 -2.31245,0.61665 -2.62077,2.15829 l -20.34958,93.57722 -20.34958,-93.57722 c -0.30833,-1.54164 -1.23331,-2.15829 -2.62078,-2.15829 h -1.54163 c -1.6958,0 -2.46662,1.07914 -2.15829,2.77494 l 22.81619,102.9812 c 0.30833,1.54163 1.23331,2.15828 2.62078,2.15828 h 2.15829 c 1.38747,0 2.31245,-0.61665 2.62078,-2.15828 l 22.81619,-102.9812 c 0.30833,-1.6958 -0.46249,-2.77494 -2.15829,-2.77494 z"
         style="letter-spacing:-6.03874731px;word-spacing:0px;fill:#d38412;fill-opacity:1;stroke-width:2.06468916px"
         id="path3747" />
      <path
         d="m 555.16985,299.54776 v -0.92498 c 0,-1.54164 -0.92498,-2.46662 -2.46661,-2.46662 h -32.99099 v -45.94071 h 27.74943 c 1.54163,0 2.46661,-0.92498 2.46661,-2.46662 v -0.92498 c 0,-1.54163 -0.92498,-2.46661 -2.46661,-2.46661 h -27.74943 v -44.39908 h 32.5285 c 1.54163,0 2.46661,-0.92498 2.46661,-2.46662 v -0.92498 c 0,-1.54163 -0.92498,-2.46661 -2.46661,-2.46661 h -36.22842 c -1.54163,0 -2.46661,0.92498 -2.46661,2.46661 v 102.9812 c 0,1.54163 0.92498,2.46661 2.46661,2.46661 h 36.69091 c 1.54163,0 2.46661,-0.92498 2.46661,-2.46661 z"
         style="letter-spacing:-6.03874731px;word-spacing:0px;fill:#d38412;fill-opacity:1;stroke-width:2.06468916px"
         id="path3749" />
      <path
         d="m 602.01641,194.09995 h -42.85744 c -1.54164,0 -2.46662,0.92498 -2.46662,2.46661 v 0.92498 c 0,1.54164 0.92498,2.46662 2.46662,2.46662 h 18.34545 v 99.5896 c 0,1.54163 0.92498,2.46661 2.46662,2.46661 h 1.23331 c 1.54163,0 2.46661,-0.92498 2.46661,-2.46661 v -99.5896 h 18.34545 c 1.54164,0 2.46662,-0.92498 2.46662,-2.46662 v -0.92498 c 0,-1.54163 -0.92498,-2.46661 -2.46662,-2.46661 z"
         style="letter-spacing:-6.03874731px;word-spacing:0px;fill:#d38412;fill-opacity:1;stroke-width:2.06468916px"
         id="path3751" />
    </g>
    <g
       transform="matrix(0.10497363,0,0,-0.10497363,257.67633,-7.5527366)"
       id="g4888"
       style="fill:#3a4d5c;fill-opacity:1"
       inkscape:export-filename="/home/mcdragon/Dropbox/Pet Doc Martin Team Folder/Logo/design/martin-vet-square.png"
       inkscape:export-xdpi="93.817513"
       inkscape:export-ydpi="93.817513">
      <g
         id="g4890"
         clip-path="url(#clipPath4894)"
         style="fill:#3a4d5c;fill-opacity:1">
        <g
           id="g4896"
           transform="translate(274.9663,738.3013)"
           style="fill:#3a4d5c;fill-opacity:1">
          <path
             d="m 0,0 c -2.339,0 -4.655,-0.679 -6.738,-2.021 -3.64,-2.347 -5.728,-6.176 -5.728,-10.507 v -251.558 c 0,-3.996 1.839,-7.653 5.045,-10.035 3.208,-2.381 7.24,-3.087 11.065,-1.932 l 261.766,78.956 v 77.943 L 5.197,-1.144 C 3.51,-0.379 1.748,0 0,0 m -0.077,-301.617 c -7.916,0 -15.664,2.534 -22.252,7.428 -9.62,7.147 -15.137,18.118 -15.137,30.103 v 251.558 c 0,12.801 6.424,24.585 17.184,31.52 10.761,6.935 24.145,7.92 35.804,2.632 L 282.486,-99.447 c 4.814,-2.183 7.924,-7.01 7.924,-12.295 v -93.897 c 0,-5.991 -3.853,-11.185 -9.587,-12.921 l -269.96,-81.429 c -3.616,-1.091 -7.297,-1.628 -10.94,-1.628"
             style="fill:#3a4d5c;fill-opacity:1;fill-rule:nonzero;stroke:none"
             id="path4898"
             inkscape:connector-curvature="0" />
        </g>
        <g
           id="g4900"
           transform="translate(659.623,541.2051)"
           style="fill:#3a4d5c;fill-opacity:1">
          <path
             d="m 0,0 261.767,-78.957 c 3.825,-1.154 7.858,-0.448 11.064,1.933 3.207,2.381 5.046,6.039 5.046,10.034 v 251.558 c 0,4.331 -2.088,8.161 -5.729,10.507 -3.639,2.345 -7.99,2.665 -11.933,0.877 L 0,77.942 Z m 265.487,-104.521 c -3.644,0 -7.322,0.538 -10.94,1.628 l -269.944,81.424 c -5.749,1.74 -9.603,6.933 -9.603,12.926 v 93.897 c 0,5.286 3.11,10.112 7.924,12.295 L 249.889,218.72 c 11.658,5.286 25.043,4.305 35.803,-2.632 10.761,-6.935 17.185,-18.718 17.185,-31.52 V -66.99 c 0,-11.985 -5.518,-22.956 -15.138,-30.103 -6.587,-4.893 -14.338,-7.428 -22.252,-7.428"
             style="fill:#3a4d5c;fill-opacity:1;fill-rule:nonzero;stroke:none"
             id="path4902"
             inkscape:connector-curvature="0" />
        </g>
        <g
           id="g4904"
           transform="translate(577.8765,658.0615)"
           style="fill:#3a4d5c;fill-opacity:1">
          <path
             d="m 0,0 c -6.893,0 -12.5,-5.607 -12.5,-12.5 v -132 c 0,-6.893 5.607,-12.5 12.5,-12.5 h 44.247 c 6.892,0 12.5,5.607 12.5,12.5 v 132 c 0,6.893 -5.608,12.5 -12.5,12.5 z M 44.247,-182 H 0 c -20.678,0 -37.5,16.822 -37.5,37.5 v 132 C -37.5,8.178 -20.678,25 0,25 h 44.247 c 20.677,0 37.5,-16.822 37.5,-37.5 v -132 c 0,-20.678 -16.823,-37.5 -37.5,-37.5"
             style="fill:#3a4d5c;fill-opacity:1;fill-rule:nonzero;stroke:none"
             id="path4906"
             inkscape:connector-curvature="0" />
        </g>
      </g>
    </g>
  </g>
</svg>
