<?xml version="1.0" encoding="UTF-8" standalone="no"?>
<!-- Created with Inkscape (http://www.inkscape.org/) -->

<svg
   xmlns:dc="http://purl.org/dc/elements/1.1/"
   xmlns:cc="http://creativecommons.org/ns#"
   xmlns:rdf="http://www.w3.org/1999/02/22-rdf-syntax-ns#"
   xmlns:svg="http://www.w3.org/2000/svg"
   xmlns="http://www.w3.org/2000/svg"
   xmlns:sodipodi="http://sodipodi.sourceforge.net/DTD/sodipodi-0.dtd"
   xmlns:inkscape="http://www.inkscape.org/namespaces/inkscape"
   width="1000mm"
   height="164.60638mm"
   viewBox="0 0 1000 164.60638"
   version="1.1"
   id="svg94"
   inkscape:version="0.92.3 (2405546, 2018-03-11)"
   sodipodi:docname="martin-vet2.ai.svg"
   inkscape:export-filename="/home/mcdragon/Dropbox/Pet Doc Martin Team Folder/Logo/design/martin-vet-wide-340x56.ai.svg.png"
   inkscape:export-xdpi="36.119999"
   inkscape:export-ydpi="36.119999">
  <defs
     id="defs88">
    <clipPath
       clipPathUnits="userSpaceOnUse"
       id="clipPath4894">
      <path
         d="M 0,1200 H 1200 V 0 H 0 Z"
         id="path4892"
         inkscape:connector-curvature="0" />
    </clipPath>
  </defs>
  <sodipodi:namedview
     id="base"
     pagecolor="#ffffff"
     bordercolor="#666666"
     borderopacity="1.0"
     inkscape:pageopacity="0.0"
     inkscape:pageshadow="2"
     inkscape:zoom="0.24748737"
     inkscape:cx="1895.6923"
     inkscape:cy="216.04133"
     inkscape:document-units="mm"
     inkscape:current-layer="layer1"
     showgrid="false"
     inkscape:window-width="1853"
     inkscape:window-height="1025"
     inkscape:window-x="67"
     inkscape:window-y="27"
     inkscape:window-maximized="1"
     fit-margin-top="0"
     fit-margin-left="0"
     fit-margin-right="0"
     fit-margin-bottom="0"
     inkscape:pagecheckerboard="true" />
  <metadata
     id="metadata91">
    <rdf:RDF>
      <cc:Work
         rdf:about="">
        <dc:format>image/svg+xml</dc:format>
        <dc:type
           rdf:resource="http://purl.org/dc/dcmitype/StillImage" />
        <dc:title></dc:title>
      </cc:Work>
    </rdf:RDF>
  </metadata>
  <g
     inkscape:label="Layer 1"
     inkscape:groupmode="layer"
     id="layer1"
     transform="translate(-14.03826,13.234631)">
    <g
       transform="matrix(4.6265108,0,0,-4.6265108,127.62128,30.334144)"
       id="g3870"
       style="fill:#d38412;fill-opacity:1">
      <path
         inkscape:connector-curvature="0"
         id="path3872"
         style="fill:#d38412;fill-opacity:1;fill-rule:nonzero;stroke:none"
         d="m 0,0 c 0.181,-0.568 0.265,-1.106 0.268,-1.615 0.007,-0.742 -0.158,-1.422 -0.449,-2.051 -1.669,-3.625 -7.497,-5.516 -8.942,-6.698 -0.26,-0.211 -0.52,-0.425 -0.774,-0.644 -0.309,2.537 0.644,5.839 1.187,7.039 -0.176,0.186 -0.367,0.364 -0.52,0.571 -0.53,0.7 -0.563,1.666 -0.431,2.537 0.136,0.869 0.408,1.725 0.408,2.609 -0.423,-1.402 -1.503,-3.024 -2.397,-4.209 -1.59,-2.097 -2.589,2.583 -3.032,3.467 -0.706,1.396 -1.279,2.571 -0.082,4.122 0.579,0.754 1.458,1.203 2.263,1.702 1.228,0.764 2.438,0.589 3.651,1.376 0.01,0.005 0.02,0.013 0.03,0.018 1.898,1.223 4.3,1.437 6.387,0.57 0.01,-0.005 0.02,-0.01 0.031,-0.012 C -1.067,8.224 0.092,8.608 1.434,8.074 2.316,7.725 3.261,7.439 3.964,6.802 5.416,5.482 5.06,4.227 4.614,2.729 4.481,2.285 4.379,1.006 4.109,-0.051 3.867,-0.996 3.493,-1.76 2.846,-1.592 2.729,-1.562 2.604,-1.501 2.469,-1.404 2.397,-1.353 2.321,-1.292 2.245,-1.22 1.333,-0.382 0.242,0.736 -0.481,1.842 -0.507,1.88 -0.53,1.918 -0.555,1.957 -0.352,1.304 -0.107,0.341 0,0" />
    </g>
    <g
       transform="matrix(4.6265108,0,0,-4.6265108,213.41674,145.49002)"
       id="g3874">
      <path
         inkscape:connector-curvature="0"
         id="path3876"
         style="fill:#d38412;fill-opacity:1;fill-rule:nonzero;stroke:none"
         d="M 0,0 C -0.008,-0.005 -0.015,-0.013 -0.023,-0.018 -1.014,-0.843 -2.278,-1.271 -3.569,-1.271 H -14.04 c -0.283,0.002 -1.46,4.287 -0.494,7.905 0.647,2.423 2.094,4.601 3.78,6.438 1.009,-0.945 1.748,-2.176 2.405,-3.381 0.732,-1.345 1.356,-2.744 1.934,-4.158 0.476,-1.166 0.726,-2.542 1.389,-3.617 0.147,-0.24 0.356,-0.451 0.621,-0.548 0.288,-0.11 0.617,-0.069 0.902,0.046 0.787,0.321 1.378,1.072 1.865,1.735 0.886,1.207 1.556,2.583 2.079,3.979 0.466,1.249 0.843,2.571 0.914,3.908 C 1.396,11.752 5.184,4.96 0,0" />
    </g>
    <g
       transform="matrix(4.6265108,0,0,-4.6265108,148.46051,151.37175)"
       id="g3878"
       style="fill:#3a4d5c;fill-opacity:1">
      <path
         inkscape:connector-curvature="0"
         id="path3880"
         style="fill:#3a4d5c;fill-opacity:1;fill-rule:nonzero;stroke:none"
         d="m 0,0 c -0.769,0.01 -2.861,0.008 -3.63,0.005 v 6.023 c 0,1.452 -1.18,2.629 -2.632,2.629 -1.455,0 -2.632,-1.177 -2.632,-2.629 V 0.005 C -9.498,0.008 -11.07,0.008 -11.673,0 c 0.204,0.003 -0.584,7.46 -2.543,14.211 -0.086,0.298 -0.148,0.614 -0.186,0.942 0.255,0.219 0.515,0.433 0.775,0.645 1.444,1.182 7.273,3.072 8.942,6.698 0.252,-0.642 0.576,-1.251 0.994,-1.802 C -1.806,18.2 0.904,16.539 3.179,14.445 3.215,14.412 3.251,14.379 3.286,14.343 1.6,12.506 0.153,10.328 -0.494,7.905 -1.46,4.288 -0.283,0.003 0,0" />
    </g>
    <g
       transform="matrix(4.6265108,0,0,-4.6265108,94.453824,151.37175)"
       id="g3882"
       style="fill:#6786a1;fill-opacity:1">
      <path
         inkscape:connector-curvature="0"
         id="path3884"
         style="fill:#6786a1;fill-opacity:1;fill-rule:nonzero;stroke:none"
         d="m 0,0 h -10.825 c -1.289,0 -2.553,0.428 -3.544,1.253 -0.007,0.005 -0.015,0.013 -0.023,0.018 -1.709,1.44 -2.692,3.6 -2.929,5.799 -0.237,2.226 0.242,4.486 1.098,6.555 0.83,2.012 3.029,6.397 5.052,4.96 3.497,-2.481 -8.548,-10.917 -0.342,-14.758 0.176,-0.082 2.031,-0.925 2.059,-0.818 0.071,0.283 0.145,0.56 0.219,0.841 1.067,3.999 2.598,7.734 5.704,10.595 0.262,0.242 0.53,0.477 0.802,0.708 0.039,-0.328 0.1,-0.644 0.186,-0.942 C -0.583,7.46 0.204,0.003 0,0" />
    </g>
    <g
       transform="matrix(4.6265108,0,0,-4.6265108,163.66498,85.012436)"
       id="g3886"
       style="fill:#6786a1;fill-opacity:1">
      <path
         inkscape:connector-curvature="0"
         id="path3888"
         style="fill:#6786a1;fill-opacity:1;fill-rule:nonzero;stroke:none"
         d="m 0,0 c -0.036,0.036 -0.071,0.069 -0.107,0.102 -2.275,2.094 -4.986,3.755 -6.871,6.249 -0.418,0.551 -0.741,1.159 -0.994,1.801 0.291,0.63 0.456,1.31 0.449,2.051 -0.003,0.51 -0.087,1.047 -0.268,1.615 -0.107,0.342 -0.351,1.305 -0.555,1.957 0.025,-0.038 0.048,-0.076 0.074,-0.115 0.723,-1.105 1.814,-2.224 2.726,-3.062 0.076,-0.071 0.153,-0.132 0.224,-0.183 0.143,-0.143 0.29,-0.283 0.438,-0.418 2.247,-2.061 5.5,-2.132 6.858,4.418 C 2.334,11.885 4.733,5.159 0,0" />
    </g>
    <g
       aria-label="martin.vet"
       style="font-style:normal;font-weight:normal;font-size:125.62998199px;font-family:sans-serif;letter-spacing:-9.18597984px;word-spacing:-0.04426976px;fill:#000000;fill-opacity:1;stroke:none;stroke-width:3.14074969px;stroke-linecap:butt;stroke-linejoin:miter;stroke-opacity:1"
       id="text4754">
      <path
         d="M 350.77454,11.623359 V 147.16976 c 0,2.34509 1.40705,3.75215 3.75214,3.75215 h 1.87608 c 2.34509,0 3.75215,-1.40706 3.75215,-3.75215 V -9.4824819 c 0,-2.3450931 -1.40706,-3.7521491 -3.75215,-3.7521491 h -2.81411 c -2.11059,0 -3.75215,1.172546 -4.45568,3.048621 L 306.21776,104.72357 264.00608,-10.18601 c -0.70353,-1.876075 -2.34509,-3.048621 -4.45568,-3.048621 h -2.34509 c -2.34509,0 -3.75215,1.407056 -3.75215,3.7521491 V 147.16976 c 0,2.34509 1.40706,3.75215 3.75215,3.75215 h 1.40706 c 2.34509,0 3.75214,-1.40706 3.75214,-3.75215 V 11.623359 l 40.33561,107.639781 c 0.70353,1.87608 2.11058,3.04863 3.98666,3.04863 1.64156,0 3.04862,-1.17255 3.75215,-3.04863 z"
         style="font-style:normal;font-variant:normal;font-weight:300;font-stretch:normal;font-size:234.50933838px;font-family:'Rift Soft';-inkscape-font-specification:'Rift Soft, Light';font-variant-ligatures:normal;font-variant-caps:normal;font-variant-numeric:normal;font-feature-settings:normal;text-align:start;letter-spacing:-9.18597984px;word-spacing:0px;writing-mode:lr-tb;text-anchor:start;fill:#3a4d5c;fill-opacity:1;stroke-width:3.14074969px"
         id="path4243" />
      <path
         d="M 459.47714,146.70074 422.65918,-9.9515006 c -0.46902,-2.3450934 -1.87608,-3.2831304 -3.98666,-3.2831304 h -3.28313 c -2.11058,0 -3.51764,0.938037 -3.98666,3.2831304 L 375.05378,146.70074 c -0.46902,2.5796 0.70353,4.22117 3.28313,4.22117 h 1.87608 c 2.11058,0 3.51764,-0.93804 3.98666,-3.28314 l 9.14586,-40.3356 h 47.37089 l 9.14586,40.3356 c 0.46902,2.3451 1.87608,3.28314 3.98666,3.28314 h 2.34509 c 2.57961,0 3.75215,-1.64157 3.28313,-4.22117 z M 395.4561,98.391814 417.03095,3.8845504 438.60581,98.391814 Z"
         style="font-style:normal;font-variant:normal;font-weight:300;font-stretch:normal;font-size:234.50933838px;font-family:'Rift Soft';-inkscape-font-specification:'Rift Soft, Light';font-variant-ligatures:normal;font-variant-caps:normal;font-variant-numeric:normal;font-feature-settings:normal;text-align:start;letter-spacing:-9.18597984px;word-spacing:0px;writing-mode:lr-tb;text-anchor:start;fill:#3a4d5c;fill-opacity:1;stroke-width:3.14074969px"
         id="path4245" />
      <path
         d="M 552.49693,146.46623 525.05934,77.520483 c 15.94663,-3.75215 23.45093,-15.243107 23.45093,-33.300326 V 21.472751 c 0,-22.5128968 -11.72547,-34.707382 -36.58346,-34.707382 h -34.00385 c -2.34509,0 -3.75215,1.407056 -3.75215,3.7521491 V 147.16976 c 0,2.34509 1.40706,3.75215 3.75215,3.75215 h 1.87608 c 2.34509,0 3.75214,-1.40706 3.75214,-3.75215 V 78.927539 h 28.37563 3.28314 l 27.43759,68.945741 c 0.70353,2.11059 2.11058,3.04863 4.22117,3.04863 h 2.5796 c 2.81411,0 3.98666,-1.87608 3.04862,-4.45568 z M 510.98878,70.016184 h -27.4376 V -4.3232765 h 27.4376 c 20.63682,0 28.14112,8.9113549 28.14112,30.0171955 v 14.305069 c 0,21.105841 -7.5043,30.017196 -28.14112,30.017196 z"
         style="font-style:normal;font-variant:normal;font-weight:300;font-stretch:normal;font-size:234.50933838px;font-family:'Rift Soft';-inkscape-font-specification:'Rift Soft, Light';font-variant-ligatures:normal;font-variant-caps:normal;font-variant-numeric:normal;font-feature-settings:normal;text-align:start;letter-spacing:-9.18597984px;word-spacing:0px;writing-mode:lr-tb;text-anchor:start;fill:#3a4d5c;fill-opacity:1;stroke-width:3.14074969px"
         id="path4247" />
      <path
         d="m 625.69701,-13.234631 h -65.1936 c -2.34509,0 -3.75215,1.407056 -3.75215,3.7521491 v 1.407056 c 0,2.3450934 1.40706,3.7521494 3.75215,3.7521494 h 27.90662 V 147.16976 c 0,2.34509 1.40705,3.75215 3.75214,3.75215 h 1.87608 c 2.34509,0 3.75215,-1.40706 3.75215,-3.75215 V -4.3232765 h 27.90661 c 2.34509,0 3.75215,-1.407056 3.75215,-3.7521494 v -1.407056 c 0,-2.3450931 -1.40706,-3.7521491 -3.75215,-3.7521491 z"
         style="font-style:normal;font-variant:normal;font-weight:300;font-stretch:normal;font-size:234.50933838px;font-family:'Rift Soft';-inkscape-font-specification:'Rift Soft, Light';font-variant-ligatures:normal;font-variant-caps:normal;font-variant-numeric:normal;font-feature-settings:normal;text-align:start;letter-spacing:-9.18597984px;word-spacing:0px;writing-mode:lr-tb;text-anchor:start;fill:#3a4d5c;fill-opacity:1;stroke-width:3.14074969px"
         id="path4249" />
      <path
         d="M 650.70175,147.16976 V -9.4824819 c 0,-2.3450931 -1.40706,-3.7521491 -3.75215,-3.7521491 h -1.87608 c -2.34509,0 -3.75215,1.407056 -3.75215,3.7521491 V 147.16976 c 0,2.34509 1.40706,3.75215 3.75215,3.75215 h 1.87608 c 2.34509,0 3.75215,-1.40706 3.75215,-3.75215 z"
         style="font-style:normal;font-variant:normal;font-weight:300;font-stretch:normal;font-size:234.50933838px;font-family:'Rift Soft';-inkscape-font-specification:'Rift Soft, Light';font-variant-ligatures:normal;font-variant-caps:normal;font-variant-numeric:normal;font-feature-settings:normal;text-align:start;letter-spacing:-9.18597984px;word-spacing:0px;writing-mode:lr-tb;text-anchor:start;fill:#3a4d5c;fill-opacity:1;stroke-width:3.14074969px"
         id="path4251" />
      <path
         d="M 684.54822,147.16976 V 9.5127745 L 741.7685,148.10779 c 0.70353,1.87608 2.11059,2.81412 4.22117,2.81412 h 2.5796 c 2.3451,0 3.75215,-1.40706 3.75215,-3.75215 V -9.4824819 c 0,-2.3450931 -1.40705,-3.7521491 -3.75215,-3.7521491 h -1.87607 c -2.34509,0 -3.75215,1.407056 -3.75215,3.7521491 V 128.1745 L 686.18979,-10.420519 c -0.70353,-1.876075 -2.11058,-2.814112 -4.22117,-2.814112 H 678.92 c -2.34509,0 -3.75215,1.407056 -3.75215,3.7521491 V 147.16976 c 0,2.34509 1.40706,3.75215 3.75215,3.75215 h 1.87608 c 2.34509,0 3.75214,-1.40706 3.75214,-3.75215 z"
         style="font-style:normal;font-variant:normal;font-weight:300;font-stretch:normal;font-size:234.50933838px;font-family:'Rift Soft';-inkscape-font-specification:'Rift Soft, Light';font-variant-ligatures:normal;font-variant-caps:normal;font-variant-numeric:normal;font-feature-settings:normal;text-align:start;letter-spacing:-9.18597984px;word-spacing:0px;writing-mode:lr-tb;text-anchor:start;fill:#3a4d5c;fill-opacity:1;stroke-width:3.14074969px"
         id="path4253" />
      <path
         d="m 778.25321,136.85135 h -3.28313 c -2.34509,0 -3.75215,1.40705 -3.75215,3.75214 v 6.56627 c 0,2.34509 1.40706,3.75215 3.75215,3.75215 h 3.28313 c 2.34509,0 3.75215,-1.40706 3.75215,-3.75215 v -6.56627 c 0,-2.34509 -1.40706,-3.75214 -3.75215,-3.75214 z"
         style="letter-spacing:-9.18597984px;word-spacing:0px;fill:#d38412;fill-opacity:1;stroke-width:3.14074969px"
         id="path4255" />
      <path
         d="m 857.64217,-13.234631 h -1.87608 c -2.11058,0 -3.51764,0.938037 -3.98666,3.2831304 L 820.8242,132.39567 789.86897,-9.9515006 c -0.46902,-2.3450934 -1.87608,-3.2831304 -3.98666,-3.2831304 h -2.34509 c -2.57961,0 -3.75215,1.641565 -3.28313,4.2211677 L 814.96147,147.63877 c 0.46902,2.3451 1.87607,3.28314 3.98666,3.28314 h 3.28313 c 2.11058,0 3.51764,-0.93804 3.98666,-3.28314 L 860.9253,-9.0134633 c 0.46902,-2.5796027 -0.70353,-4.2211677 -3.28313,-4.2211677 z"
         style="letter-spacing:-9.18597984px;word-spacing:0px;fill:#d38412;fill-opacity:1;stroke-width:3.14074969px"
         id="path4257" />
      <path
         d="m 939.0244,147.16976 v -1.40706 c 0,-2.34509 -1.40705,-3.75215 -3.75215,-3.75215 H 885.08726 V 72.126768 h 42.21168 c 2.34509,0 3.75215,-1.407056 3.75215,-3.75215 v -1.407056 c 0,-2.345093 -1.40706,-3.752149 -3.75215,-3.752149 H 885.08726 V -4.3232765 h 49.48147 c 2.34509,0 3.75215,-1.407056 3.75215,-3.7521494 v -1.407056 c 0,-2.3450931 -1.40706,-3.7521491 -3.75215,-3.7521491 h -55.1097 c -2.34509,0 -3.75215,1.407056 -3.75215,3.7521491 V 147.16976 c 0,2.34509 1.40706,3.75215 3.75215,3.75215 h 55.81322 c 2.3451,0 3.75215,-1.40706 3.75215,-3.75215 z"
         style="letter-spacing:-9.18597984px;word-spacing:0px;fill:#d38412;fill-opacity:1;stroke-width:3.14074969px"
         id="path4259" />
      <path
         d="m 1010.2861,-13.234631 h -65.19357 c -2.3451,0 -3.75215,1.407056 -3.75215,3.7521491 v 1.407056 c 0,2.3450934 1.40705,3.7521494 3.75215,3.7521494 h 27.90661 V 147.16976 c 0,2.34509 1.40705,3.75215 3.75215,3.75215 h 1.87607 c 2.34509,0 3.75215,-1.40706 3.75215,-3.75215 V -4.3232765 h 27.90659 c 2.3451,0 3.7522,-1.407056 3.7522,-3.7521494 v -1.407056 c 0,-2.3450931 -1.4071,-3.7521491 -3.7522,-3.7521491 z"
         style="letter-spacing:-9.18597984px;word-spacing:0px;fill:#d38412;fill-opacity:1;stroke-width:3.14074969px"
         id="path4261" />
    </g>
    <g
       transform="matrix(0.04183254,0,0,-0.04183254,79.558138,74.150974)"
       id="g4888"
       style="fill:#3a4d5c;fill-opacity:1">
      <g
         id="g4890"
         clip-path="url(#clipPath4894)"
         style="fill:#3a4d5c;fill-opacity:1">
        <g
           id="g4896"
           transform="translate(274.9663,738.3013)"
           style="fill:#3a4d5c;fill-opacity:1">
          <path
             d="m 0,0 c -2.339,0 -4.655,-0.679 -6.738,-2.021 -3.64,-2.347 -5.728,-6.176 -5.728,-10.507 v -251.558 c 0,-3.996 1.839,-7.653 5.045,-10.035 3.208,-2.381 7.24,-3.087 11.065,-1.932 l 261.766,78.956 v 77.943 L 5.197,-1.144 C 3.51,-0.379 1.748,0 0,0 m -0.077,-301.617 c -7.916,0 -15.664,2.534 -22.252,7.428 -9.62,7.147 -15.137,18.118 -15.137,30.103 v 251.558 c 0,12.801 6.424,24.585 17.184,31.52 10.761,6.935 24.145,7.92 35.804,2.632 L 282.486,-99.447 c 4.814,-2.183 7.924,-7.01 7.924,-12.295 v -93.897 c 0,-5.991 -3.853,-11.185 -9.587,-12.921 l -269.96,-81.429 c -3.616,-1.091 -7.297,-1.628 -10.94,-1.628"
             style="fill:#3a4d5c;fill-opacity:1;fill-rule:nonzero;stroke:none"
             id="path4898"
             inkscape:connector-curvature="0" />
        </g>
        <g
           id="g4900"
           transform="translate(659.623,541.2051)"
           style="fill:#3a4d5c;fill-opacity:1">
          <path
             d="m 0,0 261.767,-78.957 c 3.825,-1.154 7.858,-0.448 11.064,1.933 3.207,2.381 5.046,6.039 5.046,10.034 v 251.558 c 0,4.331 -2.088,8.161 -5.729,10.507 -3.639,2.345 -7.99,2.665 -11.933,0.877 L 0,77.942 Z m 265.487,-104.521 c -3.644,0 -7.322,0.538 -10.94,1.628 l -269.944,81.424 c -5.749,1.74 -9.603,6.933 -9.603,12.926 v 93.897 c 0,5.286 3.11,10.112 7.924,12.295 L 249.889,218.72 c 11.658,5.286 25.043,4.305 35.803,-2.632 10.761,-6.935 17.185,-18.718 17.185,-31.52 V -66.99 c 0,-11.985 -5.518,-22.956 -15.138,-30.103 -6.587,-4.893 -14.338,-7.428 -22.252,-7.428"
             style="fill:#3a4d5c;fill-opacity:1;fill-rule:nonzero;stroke:none"
             id="path4902"
             inkscape:connector-curvature="0" />
        </g>
        <g
           id="g4904"
           transform="translate(577.8765,658.0615)"
           style="fill:#3a4d5c;fill-opacity:1">
          <path
             d="m 0,0 c -6.893,0 -12.5,-5.607 -12.5,-12.5 v -132 c 0,-6.893 5.607,-12.5 12.5,-12.5 h 44.247 c 6.892,0 12.5,5.607 12.5,12.5 v 132 c 0,6.893 -5.608,12.5 -12.5,12.5 z M 44.247,-182 H 0 c -20.678,0 -37.5,16.822 -37.5,37.5 v 132 C -37.5,8.178 -20.678,25 0,25 h 44.247 c 20.677,0 37.5,-16.822 37.5,-37.5 v -132 c 0,-20.678 -16.823,-37.5 -37.5,-37.5"
             style="fill:#3a4d5c;fill-opacity:1;fill-rule:nonzero;stroke:none"
             id="path4906"
             inkscape:connector-curvature="0" />
        </g>
      </g>
    </g>
  </g>
</svg>
